<?xml version="1.0" encoding="utf-8"?>
<svg version="1.1" id="aimp" xmlns="http://www.w3.org/2000/svg" xmlns:xlink="http://www.w3.org/1999/xlink" x="0px" y="0px"
	 viewBox="0 0 1024 1024" style="enable-background:new 0 0 1024 1024;" xml:space="preserve">
<style type="text/css">
	.st0{fill:#FE9200;}
	.st1{fill:#252525;}
</style>
<g>
	<g>
		<g>
			<circle cx="498.1" cy="495" r="446.9"/>
			<circle class="st0" cx="498.1" cy="495" r="380.3"/>
			<path class="st1" d="M497.2,274c4.5,7.6,8.5,14.3,12.4,21c74.5,127.5,149.1,255.1,223.6,382.6c1.1,1.9,2.2,3.8,3.2,5.8
				c2.2,4.2,1.4,6.3-3.9,6.3c-29-0.1-58-0.2-87,0c-5.6,0-6.5-4.3-8.4-7.6c-44.2-76.7-88.4-153.3-132.6-230c-1.4-2.4-2.9-4.9-4.3-7.3
				c-3.6,1.4-4.3,4.8-5.9,7.4c-29.3,49.6-58.6,99.3-87.8,148.9c-1.5,2.6-5,5.3-3.2,8.3c1.7,2.8,5.8,1.2,8.8,1.2
				c41.3,0.1,82.6,0.2,123.9-0.1c6.4,0,10.3,1.8,13.9,7.2c13.8,20.7,28.1,41.1,42.2,61.6c1.7,2.5,4.7,5.1,3.2,8.4
				c-1.7,3.7-5.6,1.7-8.4,1.7c-106.3,0.1-212.5,0.1-318.8,0.1c-11.3,0-11.5-0.3-5.8-10.1C339.2,546.5,416.1,413.4,493,280.4
				C494.1,278.6,495.3,276.9,497.2,274z"/>
		</g>
	</g>
</g>
</svg>
