<svg id="quicktime" data-name="quicktime" xmlns="http://www.w3.org/2000/svg" viewBox="0 0 1023.91 1009.02">
    <defs>
    <style>
        .cls-1{fill:#316cb1;}
        .cls-2{fill:#fefefe;}
        .cls-3{fill:#fdfdfd;}
        .cls-4{fill:#fbfdfd;}
    </style>
    </defs>
    <title>quicktime</title>
    <path class="cls-1" d="M942.49,1012.64c-19.62,0-39.25-.16-58.87.05a42.25,42.25,0,0,1-32.1-13.26c-19.79-20.15-40.2-39.69-59.64-60.17-7.25-7.64-12.72-8.6-21.84-2.91-93.72,58.5-196.42,81.89-305.84,73.1-116.39-9.34-218.67-53.78-304-133.93C60.44,781.79,7.14,665.93.65,528.91-11.8,266.38,186.26,34.77,447.11,6.82,657-15.66,850.94,83.15,949.31,269.49c84.87,160.77,81.71,324.09-3.3,485.1-4.74,9-3,13.39,3.26,19.36,19.73,18.84,38.86,38.29,58.74,57,10.89,10.23,15.89,22.41,15.91,37,.05,41.64.15,83.29,0,124.93,0,15.35-4.48,19.65-19.68,19.77C983.66,1012.76,963.08,1012.65,942.49,1012.64Z" transform="translate(-0.09 -3.67)"/>
    <path class="cls-2" d="M809,479.59c-.2,181.94-124.81,315.83-281.05,325.9-161,10.38-301.36-103.42-322.83-261.74C179.46,354.88,333.88,188.65,523.9,200.88c56.59,3.65,108.35,21.78,155.41,53.68,8.9,6,8.69,9.19,1.26,16.54Q606,344.75,532.38,419.37c-6.22,6.28-12.16,8.92-21.3,8.31-43.92-2.93-79.34,29.73-80.41,73.22-1.05,42.63,34.82,78.47,77.3,77.26s74.6-37.53,71.77-81.8c-.4-6.25,2.14-9.78,6-13.57q78.16-77.13,156.12-154.48c7.12-7.11,9.59-3.36,13.56,2.53C790.58,383.07,808.76,440.51,809,479.59Z" transform="translate(-0.09 -3.67)"/>
    <path class="cls-3" d="M837.06,231.19c-2.08,2.35-3.84,4.56-5.82,6.55-24.65,24.75-49.45,49.36-73.91,74.3-5.75,5.86-9.27,7.67-15.4-.2-12.65-16.25-27.54-30.56-43.58-43.52-5.15-4.16-7.65-6.86-1.5-12.86,25.7-25.05,50.88-50.63,76.26-76,3.35-3.34,6.18-7.46,11.58-1.91,16,16.46,32.41,32.55,48.62,48.83A53.73,53.73,0,0,1,837.06,231.19Z" transform="translate(-0.09 -3.67)"/>
    <path class="cls-4" d="M506.06,472.92c17.23.1,30.46,13.22,30,29.77-.42,15.89-15.17,30.23-30.82,30-16-.27-29.95-14.52-30-30.7C475.22,485.52,488.69,472.82,506.06,472.92Z" transform="translate(-0.09 -3.67)"/>
</svg>