<?xml version="1.0" encoding="utf-8"?>
<!-- Generator: Adobe Illustrator 22.0.1, SVG Export Plug-In . SVG Version: 6.00 Build 0)  -->
<svg version="1.1" id="Слой_1" xmlns="http://www.w3.org/2000/svg" xmlns:xlink="http://www.w3.org/1999/xlink" x="0px" y="0px"
	 viewBox="0 0 1024 1024" style="enable-background:new 0 0 1024 1024;" xml:space="preserve">
<style type="text/css">
	.st0{fill:#FFE204;}
	.st1{fill:#00A51D;}
	.st2{fill:#1A6AE9;}
	.st3{fill:#FF2A04;}
</style>
<g id="layer1" transform="translate(-479.28571,-622.93359)">
	<path id="path2861" class="st0" d="M1497.3,1133.9H1396c0,222.5-180.3,402.8-402.8,402.8v101.2
		C1271.6,1637.9,1497.3,1412.3,1497.3,1133.9z"/>
	<path id="path2866" class="st1" d="M993.3,731.2c222.5,0,402.8,180.3,402.8,402.8h101.2c0-278.4-225.6-504-504-504V731.2z"/>
	<path id="path2864" class="st2" d="M489.3,1133.9c0,278.4,225.6,504,504,504v-101.2c-222.5,0-402.8-180.3-402.8-402.8H489.3z"/>
	<path id="path2844" class="st3" d="M489.3,1133.9h101.2c0-222.5,180.3-402.8,402.8-402.8V629.9
		C714.9,629.9,489.3,855.6,489.3,1133.9z"/>
	<path id="path2868" d="M853.4,911.8c-15.3,1-28.6,15.1-28.6,30.5v383.3c0,10.7,6.2,21.2,15.5,26.4c9.3,5.3,21.4,5.1,30.6-0.3
		l322.3-191.6c9-5.4,14.9-15.7,14.9-26.2s-5.9-20.8-14.9-26.2L870.9,916.2C865.7,913,859.5,911.5,853.4,911.8z"/>
</g>
</svg>
